<svg xmlns="http://www.w3.org/2000/svg" aria-hidden="true" style="position:absolute;width:0;height:0;overflow:hidden">
  <defs>
    <symbol id="icon-main-logo" viewBox="0 0 39 32">
      <path d="m16.999.302 20.972 20.429v10.967h-9.787v-7.025L12.952 9.835H9.788v21.863H.001V.302H17zm11.185 10.895V.301h9.787v10.896h-9.787z"/>
    </symbol>
     <symbol id="icon-instagram" viewBox="0 0 32 32">
      <path d="M9.404.096C11.11.017 11.654 0 16 0s4.89.019 6.595.096 2.868.349 3.887.743a7.88 7.88 0 0 1 2.833 1.847 7.803 7.803 0 0 1 1.844 2.832c.396 1.018.666 2.182.745 3.884.079 1.709.096 2.253.096 6.598 0 4.346-.019 4.89-.096 6.596-.077 1.702-.349 2.865-.745 3.884a7.85 7.85 0 0 1-1.844 2.835 7.832 7.832 0 0 1-2.833 1.844c-1.018.396-2.182.666-3.884.745C20.89 31.983 20.346 32 16 32s-4.89-.019-6.596-.096c-1.702-.077-2.865-.349-3.884-.745a7.85 7.85 0 0 1-2.835-1.844 7.846 7.846 0 0 1-1.846-2.833C.445 25.464.174 24.3.096 22.598.017 20.889 0 20.345 0 16c0-4.346.019-4.89.096-6.595s.349-2.868.743-3.887a7.854 7.854 0 0 1 1.847-2.833A7.843 7.843 0 0 1 5.518.839C6.536.445 7.7.174 9.402.096h.001zm13.061 2.88c-1.687-.077-2.193-.093-6.465-.093s-4.778.016-6.465.093c-1.561.071-2.407.332-2.972.551a4.972 4.972 0 0 0-1.84 1.196 4.966 4.966 0 0 0-1.196 1.84c-.22.564-.48 1.411-.551 2.972-.077 1.687-.093 2.193-.093 6.465s.016 4.778.093 6.465c.071 1.561.332 2.407.551 2.972a4.962 4.962 0 0 0 1.196 1.84c.516.531 1.146.94 1.84 1.196.564.22 1.411.48 2.972.551 1.687.077 2.192.093 6.465.093s4.778-.016 6.465-.093c1.561-.071 2.407-.332 2.972-.551a4.972 4.972 0 0 0 1.84-1.196 4.962 4.962 0 0 0 1.196-1.84c.22-.564.48-1.411.551-2.972.077-1.687.093-2.193.093-6.465s-.016-4.778-.093-6.465c-.071-1.561-.332-2.407-.551-2.972a4.972 4.972 0 0 0-1.196-1.84 4.974 4.974 0 0 0-1.84-1.196c-.564-.22-1.411-.48-2.972-.551zm-8.509 17.956a5.335 5.335 0 0 0 6.488-1.962 5.342 5.342 0 0 0-2.646-7.995 5.34 5.34 0 0 0-7.078 4.243 5.334 5.334 0 0 0 3.236 5.714zm-3.771-10.747A8.232 8.232 0 0 1 16 7.776a8.23 8.23 0 0 1 7.598 5.077 8.21 8.21 0 0 1 0 6.294 8.225 8.225 0 1 1-13.413-8.962zm15.863-1.184a1.958 1.958 0 0 0 .611-1.386 1.953 1.953 0 0 0-.569-1.403 1.948 1.948 0 0 0-1.403-.569 1.945 1.945 0 1 0 1.363 3.36z"/>
    </symbol>
    <symbol id="icon-facebook" viewBox="0 0 20 32">
      <path d="M12.261 31.997V17.426h4.916l.731-5.705h-5.646V8.087c0-1.646.459-2.773 2.821-2.773h2.994V.228a39.915 39.915 0 0 0-4.386-.226c-4.345 0-7.328 2.652-7.328 7.522v4.187H1.479v5.705h4.894v14.581h5.888z"/>
    </symbol>
    <symbol id="icon-git-hub" viewBox="0 0 32 32">
      <path d="M16 0C7.16 0 0 7.16 0 16c0 7.08 4.58 13.06 10.94 15.18.8.14 1.1-.34 1.1-.76 0-.38-.02-1.64-.02-2.98-4.02.74-5.06-.98-5.38-1.88-.18-.46-.96-1.88-1.64-2.26-.56-.3-1.36-1.04-.02-1.06 1.26-.02 2.16 1.16 2.46 1.64 1.44 2.42 3.74 1.74 4.66 1.32.14-1.04.56-1.74 1.02-2.14-3.56-.4-7.28-1.78-7.28-7.9 0-1.74.62-3.18 1.64-4.3-.16-.4-.72-2.04.16-4.24 0 0 1.34-.42 4.4 1.64 1.28-.36 2.64-.54 4-.54s2.72.18 4 .54c3.06-2.08 4.4-1.64 4.4-1.64.88 2.2.32 3.84.16 4.24 1.02 1.12 1.64 2.54 1.64 4.3 0 6.14-3.74 7.5-7.3 7.9.58.5 1.08 1.46 1.08 2.96 0 2.14-.02 3.86-.02 4.4 0 .42.3.92 1.1.76A16.03 16.03 0 0 0 32 16c0-8.84-7.16-16-16-16z"/>
    </symbol>
    <symbol id="icon-front-end" viewBox="0 0 32 32">
      <path d="M12.836 1.209c-.02.019-.036 2.946-.036 6.503v6.467l.147.104c.08.056.315.198.52.315s.613.352.907.523c.62.36 1.639.949 2.587 1.493 3.543 1.93 3.926 2.154 4.309 2.379l-3.136-1.702c.979.567 1.953 1.13 2.613 1.509 3.543 1.93 3.926 2.154 4.309 2.379l-3.136-1.702c.877.508 1.91 1.104 3.013 1.738l1.573.907c-2.164-1.145-1.387-.689-.608-.235l2.989 1.611c.327.188.621.342.653.342.043 0 .059-.549.059-1.911 0-1.051.014-1.925.031-1.943s.112.017.211.075c.098.058.24.098.315.088l.135-.017.029-1.597c.016-.878.04-1.608.054-1.622s.025.686.025 1.555v1.581l.254-.149.253-.149.014-1.589c.017-1.915.064-1.774-.762-2.266l-.565-.337.01-2.373c.008-1.967-.002-2.381-.063-2.421a30.401 30.401 0 0 0-1.207-.713l-.814-.469v-1.5c0-1.748-.003-1.759-.486-2.036l-1.327-.764c-.572-.33-1.076-.601-1.12-.604s-.242.086-.44.196l-.36.2v1.141c0 .878-.015 1.142-.066 1.141-.037 0-.163-.056-.28-.123l-.907-.525c2.254 1.191 1.409.696.563.202l-3.149-1.697c-.484-.279-1.12-.645-1.413-.816s-.93-.537-1.413-.815C10.453-.055 9.617-.545 8.781-1.036l5.78 3.14c-.833-.485-1.629-.933-1.657-.933-.018 0-.048.016-.067.036zm1.484 1.417c.411.238.914.528 1.12.645.557.307.879.497 1.199.689l-.212-.119c.152.097 1.047.609 1.493.856.162.088.425.241.587.338.381.229.899.532 1.333.778.19.108.754.433 1.253.722s1.051.606 1.227.706c.176.1.476.274.667.388s.437.255.547.316c.162.09.2.142.2.27 0 .107.058.222.174.345.144.154 1.89 1.208 2.621 1.584l.208.107.201-.114.201-.113.898.515c.494.283.927.538.965.568.051.04.066.52.066 2.073 0 1.111-.015 2.02-.033 2.02s-.168-.082-.334-.181-.397-.229-.515-.288l-.215-.108-.797.448-.014 1.624c-.016 1.95-.059 1.814.716 2.264l1.189.693.001 1.454c0 .799-.014 1.453-.03 1.453-.028 0-.923-.509-1.862-1.058.219.111.01-.012-.2-.134l-.44-.236a27.5 27.5 0 0 1-.895-.513l.228.127c-.19-.113-.491-.286-.667-.386-1.603-.877-2.004-1.111-2.404-1.347l1.178.64c-.498-.289-1.063-.613-1.253-.722a33.614 33.614 0 0 1-1.141-.643l.474.259c-.571-.333-2.125-1.23-2.453-1.416a27.5 27.5 0 0 1-.895-.513l.228.127c-.19-.113-.491-.286-.667-.386a536.038 536.038 0 0 1-2.453-1.416 89.89 89.89 0 0 0-.693-.4 33.084 33.084 0 0 1-1.207-.695l.22.123a7.283 7.283 0 0 0-.326-.195l-.087-.046-.334-.19v-5.71c0-5.407.005-5.708.093-5.674.051.02.429.23.84.468zm-.231 1.944c.01.049.132.156.271.238.218.128.253.136.253.056 0-.053-.104-.155-.242-.238-.283-.171-.305-.175-.282-.056zm10.873 1.485c.129.066.158.115.158.267 0 .149-.021.185-.107.185-.095 0-.107.036-.107.336 0 .19-.027.363-.064.4-.05.05-.05.078 0 .128.038.038.064.22.064.446 0 .301.023.411.107.517.109.139.148.466.055.466-.085 0-.428-.326-.511-.485-.046-.091-.077-.304-.077-.544 0-.318-.021-.418-.107-.517-.059-.068-.107-.153-.107-.19 0-.136.064-.229.138-.2.06.023.075-.042.075-.327 0-.549.12-.668.482-.481zm-10.393.164c.015.083 1.01.714 1.125.714.021 0 .04-.033.04-.073 0-.061-.546-.408-1.058-.671-.109-.056-.123-.053-.106.03zm11.257.351c.279.221.361.43.361.921 0 .344.015.411.107.468.072.046.107.124.107.247 0 .154-.015.176-.107.152-.099-.026-.107-.002-.107.341 0 .296-.021.389-.106.474-.088.088-.13.096-.251.05-.228-.087-.283-.155-.283-.352 0-.144.02-.179.094-.167.079.014.095-.035.109-.328.009-.19.036-.37.06-.4s.024-.104.001-.162c-.024-.059-.044-.269-.046-.466-.003-.286-.026-.382-.11-.467-.098-.098-.157-.48-.075-.48.018 0 .13.076.247.17zm-11.266.118c0 .041.198.19.44.33s.594.347.783.459c.383.228.446.244.42.112-.009-.05-.149-.166-.31-.258s-.507-.29-.768-.442c-.51-.296-.565-.315-.565-.2zm-.48 1.09c0 .065.075.133.214.196.388.175.331-.008-.067-.219-.136-.072-.147-.069-.147.023zm4.298.162c-.046.073.098.17 1.089.739.514.294 1.021.587 1.128.651.137.081.206.098.233.055.021-.033.017-.08-.009-.104-.046-.045-2.365-1.387-2.396-1.387-.009 0-.03.021-.045.046zm-2.697 1.219c.002.11 1.781 1.16 1.87 1.105.096-.059-.044-.165-.795-.6-1.055-.612-1.076-.622-1.075-.505zm-1.601.903c.001.054.066.135.147.18l.453.258c.268.153.306.162.306.078-.001-.054-.066-.135-.147-.18l-.453-.258c-.269-.153-.307-.162-.307-.078zm3.795 1.275c.011.062.251.234.632.453l1.519.878c1.266.733 1.294.747 1.339.702.062-.062-.066-.16-.646-.494a396.99 396.99 0 0 1-1.36-.786c-1.443-.835-1.507-.868-1.485-.755zm-2.248.065c0 .078.117.177.429.36.236.138.443.238.46.221.07-.07-.044-.19-.338-.356a11.074 11.074 0 0 1-.431-.254c-.111-.072-.12-.07-.12.029zm2.08.779c0 .046.078.123.174.171.151.078.894.504 2.2 1.261.206.12.488.288.629.375.253.157.344.164.29.023-.026-.067-3.069-1.857-3.223-1.896-.038-.009-.069.02-.069.066zm-3.146.921c.001.07.248.238.882.598.485.275.895.486.912.469.081-.081-.082-.203-.862-.649-.991-.567-.933-.541-.933-.418zm-2.094 2.102c-.11.058-.2.123-.2.144.001.066.789.492.911.492.118 0 .475-.194.475-.258 0-.039-.351-.266-.624-.403-.218-.11-.316-.106-.562.024zm-.837.49c-.218.124-.405.251-.414.283-.022.069.723.504.862.504.109 0 .881-.43.882-.492.001-.046-.8-.521-.878-.521-.03 0-.233.102-.451.227zm1.957.162c-.11.065-.2.131-.2.148-.002.059.78.476.894.476.154 0 .492-.165.492-.239 0-.077-.757-.508-.887-.505a.905.905 0 0 0-.299.12zm-3.067.475c-.213.123-.387.248-.386.28s.114.119.253.194c.139.076.456.254.703.395l.45.258.376-.203c.381-.205.549-.327.507-.368-.101-.098-1.343-.78-1.419-.78-.053 0-.271.101-.484.224zm2.19-.01c-.387.214-.51.324-.405.359.031.01.214.114.407.229s.389.211.439.211c.122 0 .876-.434.875-.504-.001-.064-.759-.51-.864-.509-.038 0-.242.096-.452.213zm10.408-.157c-.052.083.009.133.514.42.471.267.572.297.515.152-.04-.101-.993-.631-1.029-.572zm6.722.209c.018.03-.003.04-.05.021-.093-.036-.11-.074-.033-.074.027 0 .065.024.083.053zm-15.133.137c-.11.072-.2.139-.2.15 0 .035.851.513.914.513.065 0 .526-.255.526-.291 0-.049-.859-.509-.944-.506-.053.002-.186.062-.296.134zm13.005.103c.301.177.459.404.438.626-.015.155-.034.173-.177.169a.849.849 0 0 1-.259-.047l.006.002c-.073-.032-.094-.016-.094.072 0 .126-.054.143-.149.048-.067-.067-.094-1.003-.029-1.003.02 0 .138.06.264.133zm-18.214.309c-.218.123-.404.249-.414.279-.021.062.009.082.901.596.373.214.721.389.773.389.115-.002.828-.432.837-.504.005-.053-1.551-.981-1.648-.983-.029-.001-.232.1-.449.224zm4.315.014c-.558.339-.553.293-.065.574.238.138.464.25.502.249.106-.001.864-.445.862-.506-.002-.086-.727-.499-.873-.498-.073.001-.265.082-.427.18zm13.814.022c0 .089.138.215.236.215.062 0 .027-.155-.053-.236-.114-.114-.183-.105-.183.021zm.789.066c.035.035.064.125.065.2.001.166.044.235.2.316.111.059.12.053.12-.099 0-.18.057-.203.183-.078.098.098.122.9.028.958-.097.059-.211-.088-.211-.272 0-.122-.037-.203-.119-.26-.168-.117-.201-.104-.201.077 0 .178-.057.202-.183.076-.062-.062-.084-.193-.084-.498 0-.481.046-.578.203-.421zm-16.218.194a3.774 3.774 0 0 0-.424.266c-.077.077.011.149.476.394.3.158.347.168.502.11.223-.085.741-.399.741-.45 0-.047-.801-.523-.88-.522-.029 0-.216.091-.415.203zm3.65-.061c-.229.139-.231.142-.12.226.062.046.264.166.45.266.371.2.493.2.744-.007l.149-.121-.386-.229c-.212-.125-.434-.239-.494-.252-.062-.014-.212.037-.342.117zm-7.408.422c-.242.134-.44.259-.44.278s.09.085.2.146c.11.06.581.331 1.048.6s.875.49.907.49c.088 0 .849-.445.867-.507.009-.029-.073-.104-.183-.165s-.582-.331-1.051-.6c-.468-.269-.863-.488-.88-.487a6.241 6.241 0 0 0-.499.261l.031-.016zm6.413.022c-.205.115-.373.238-.373.271s.187.171.416.303l.415.242.198-.093c.261-.123.704-.407.704-.45 0-.067-.754-.488-.869-.485-.065.002-.285.097-.491.212zm14.619.026c.301.177.459.404.438.626-.016.165-.028.174-.23.172-.127-.001-.238.031-.274.078-.051.066-.075.068-.146.008-.067-.056-.086-.174-.086-.545 0-.26.016-.473.035-.473s.138.06.264.133zm-16.284.254c-.213.124-.386.255-.387.293s.019.066.043.066.206.098.405.218c.248.149.398.209.481.188.18-.045.828-.425.829-.486.002-.073-.757-.507-.883-.506-.056.001-.275.103-.487.227zm3.786-.068c-.096.059-.174.124-.174.147 0 .05.136.139.557.367l.317.171.257-.13c.141-.072.255-.147.254-.169-.004-.072-.782-.492-.911-.492a.73.73 0 0 0-.3.106zm-5.614.191c-.496.304-.469.273-.334.38.066.053.274.179.462.28l.341.184.416-.242c.229-.133.424-.265.434-.293.024-.075-.75-.501-.898-.494-.069.003-.258.086-.42.185zm18.089.005c.011.091.054.157.111.168.135.026.12-.185-.018-.259-.101-.054-.109-.046-.094.091zm-22.17.207a5.247 5.247 0 0 0-.487.298l.018-.012c-.048.048.749.539.874.539.042 0 .289-.124.549-.275.439-.254.467-.281.373-.35-.19-.14-.758-.442-.83-.442-.04 0-.264.109-.498.242zm8.627.038c-.212.124-.386.243-.386.264s.202.148.45.283l.45.245.229-.117c.354-.181.63-.364.63-.42 0-.081-.714-.482-.857-.482-.072 0-.305.102-.517.227zm-1.652.269c-.212.123-.386.24-.386.259-.001.045.827.525.906.525.104 0 .908-.488.88-.534-.057-.091-.787-.479-.898-.476-.063.002-.289.104-.501.226zm3.866-.066c-.11.058-.2.126-.2.153 0 .072.758.494.891.496.135.001.456-.174.464-.253.006-.065-.761-.507-.874-.504-.044.002-.171.05-.28.108zm-5.708.185c-.227.133-.412.261-.412.283 0 .063.763.488.876.488.116 0 .884-.415.884-.478 0-.05-.668-.456-.828-.504-.072-.021-.244.048-.52.21zm-4.106.227c-.228.136-.406.272-.396.302s.205.16.433.288c.47.264.412.27 1.054-.105.201-.117.351-.235.334-.263-.062-.101-.768-.478-.888-.473-.069.002-.311.115-.538.251zm8.748-.013c-.228.133-.414.261-.414.287 0 .043.593.404.808.493.05.021.165-.008.267-.066.098-.056.295-.164.436-.239s.248-.163.238-.195c-.021-.062-.779-.516-.868-.519-.029-.001-.239.107-.466.239zm-6.214.088c-.213.123-.386.248-.386.28.002.066.749.51.859.51.042 0 .265-.111.498-.248l.423-.247-.13-.105c-.16-.13-.715-.414-.809-.414-.037 0-.242.101-.454.224zm4.56.179c-.228.133-.414.263-.414.29 0 .045.632.44.819.512.085.033.941-.436.941-.515 0-.026-.102-.099-.226-.162a3.53 3.53 0 0 1-.374-.216l.014.009c-.254-.177-.328-.168-.76.083zm3.84-.011c-.11.063-.193.136-.184.163s.202.156.429.288l.412.24.264-.124c.146-.069.265-.143.265-.167 0-.062-.809-.526-.906-.52a1.009 1.009 0 0 0-.28.12zm-5.76.171c-.364.212-.506.344-.37.344.024 0 .203.096.397.213s.409.213.477.211c.136-.002.857-.427.856-.504-.002-.052-.804-.506-.893-.506-.029 0-.239.109-.466.242zm-3.729.02c-.533.287-.791.443-.791.477 0 .021.198.154.44.296l.44.258.32-.174c.488-.264.667-.378.667-.423 0-.041-.645-.439-.809-.498-.049-.018-.168.011-.267.064zm8.369.193c-.228.133-.414.258-.413.279.001.062.786.491.9.491.138 0 .86-.419.858-.498-.002-.068-.754-.516-.864-.514-.037.001-.254.11-.481.242zm-6.213.09c-.213.123-.387.242-.387.264 0 .05.802.522.889.523.104.002.844-.457.844-.523 0-.084-.703-.489-.846-.488-.063.001-.288.101-.501.224zm4.837.032c-.405.216-.691.392-.69.426.001.069.772.489.896.489.135 0 .863-.409.863-.485 0-.043-.786-.529-.854-.529a1.21 1.21 0 0 0-.215.098zm3.642.146c-.125.075-.216.155-.203.176.046.075.775.487.862.487.103 0 .502-.216.502-.271 0-.044-.811-.529-.885-.528-.027 0-.151.062-.277.136zm-5.812.145c-.212.123-.386.252-.386.286-.001.075.77.5.897.494.121-.005.826-.436.824-.503-.004-.072-.747-.507-.859-.504-.05.002-.263.104-.475.226zm-3.75.027c-.631.33-.805.453-.735.517.121.112 1.01.613 1.087.613.04 0 .281-.123.535-.272.382-.226.448-.284.388-.342-.078-.075-1.008-.613-1.059-.613a1.21 1.21 0 0 0-.216.096zm8.39.185c-.213.124-.386.25-.386.279-.001.077.75.507.878.503s.842-.427.849-.501c.006-.062-.762-.507-.875-.507-.044 0-.254.102-.466.226zm-6.189.073c-.515.284-.515.283.072.608l.391.216.309-.159c.17-.088.376-.205.458-.261.13-.088.138-.11.069-.168-.124-.103-.661-.42-.765-.451-.052-.015-.284.078-.534.216zm4.556.196c-.231.126-.42.251-.421.277-.002.078.721.501.861.504.125.002.91-.417.911-.486.001-.04-.688-.446-.836-.492-.059-.018-.263.059-.516.197zm-1.939.159c-.212.123-.386.242-.387.263-.002.051.803.521.892.521.107 0 .865-.446.866-.51.001-.075-.76-.504-.886-.501-.055.002-.273.104-.485.226zm5.81-.115c-.136.087-.162.128-.116.184.094.114.736.45.859.45.121 0 .471-.196.471-.264 0-.077-.758-.482-.901-.482a.736.736 0 0 0-.317.114l.003-.002zm-1.172.329c-.212.123-.379.247-.37.275.022.069.772.509.869.509.109 0 .87-.443.872-.507.002-.074-.758-.507-.883-.504-.056.002-.275.104-.488.226zm-6.161.065c-.227.133-.412.263-.412.29 0 .067.764.482.887.482.12-.001.873-.411.873-.475 0-.052-.664-.458-.828-.506-.072-.021-.244.048-.52.21zm-2.265.063c-.242.137-.44.275-.44.306s.27.21.6.398c.329.188.731.42.892.515.412.244 2.078 1.211 2.922 1.696.389.224.75.406.8.404.123-.006.936-.489.935-.556-.001-.029-.467-.322-1.036-.651a370.15 370.15 0 0 1-1.914-1.114c-1.269-.747-2.168-1.248-2.237-1.247-.046.001-.281.113-.523.25zm6.839.104c-.326.189-.492.32-.45.356.107.092.807.462.873.462.098 0 .884-.43.884-.484 0-.089-.759-.533-.898-.525-.049.003-.232.088-.408.19zm-1.939.175c-.152.089-.28.174-.402.267l.01-.008c-.077.077.819.557.951.51.159-.057.82-.454.818-.491-.004-.069-.789-.488-.911-.486-.07.002-.28.095-.466.209zm5.868-.102c-.098.059-.168.138-.155.174s.206.17.432.298l.411.233.238-.126c.131-.069.238-.15.238-.18-.001-.075-.748-.507-.878-.507a.742.742 0 0 0-.285.108zm-1.209.3c-.517.299-.517.287-.03.57.235.136.453.248.485.248.058 0 .793-.402.868-.475.055-.053-.021-.113-.434-.347-.187-.105-.39-.189-.453-.187s-.259.088-.435.19zm-6.226.105c-.228.135-.413.261-.412.28.003.062.793.488.906.488.119 0 .853-.418.853-.485 0-.08-.761-.53-.891-.528a3.83 3.83 0 0 0-.455.245zm4.552.182a4.179 4.179 0 0 0-.392.257c-.056.056.722.539.866.539.044 0 .271-.11.504-.247.481-.28.488-.237-.098-.581-.172-.101-.364-.181-.427-.178s-.267.097-.454.21zm-1.925.16c-.19.114-.353.227-.361.254-.015.046.78.545.869.545.078 0 .878-.489.878-.536 0-.078-.764-.475-.907-.472-.073.002-.289.096-.479.21zm5.96-.106c-.11.059-.2.138-.2.175s.195.172.434.299l.434.231.233-.113c.128-.062.233-.144.232-.181 0-.072-.632-.452-.819-.493-.062-.014-.203.023-.313.082zm-.894.093c-.153.05-.8.45-.8.495 0 .042.642.44.818.507.084.032.897-.404.928-.498.011-.03-.145-.148-.344-.261-.45-.255-.503-.277-.603-.244zm-6.6.292c-.213.121-.387.247-.387.28 0 .074.766.507.894.505.123-.002.842-.439.832-.506-.01-.073-.755-.507-.863-.503-.05.002-.263.103-.475.224zm4.526.201a4.337 4.337 0 0 0-.4.26l.012-.008c-.045.045.646.475.845.526.096.024.924-.425.923-.501-.001-.074-.784-.492-.911-.487-.07.002-.281.097-.469.21zm-1.886.142c-.482.285-.482.283.098.602l.395.217.395-.217c.217-.12.42-.247.45-.283.042-.051-.05-.129-.375-.318-.236-.139-.457-.25-.491-.248s-.246.113-.474.248zm5.974-.071c-.11.063-.2.139-.2.168.001.075.748.507.878.507.15-.001.466-.203.44-.282-.024-.072-.782-.52-.866-.512-.097.034-.18.074-.258.123l.005-.003zm-1.001.106c-.395.209-.747.423-.746.453.001.07.774.488.902.488.138 0 .857-.407.857-.485 0-.042-.786-.53-.853-.529a.864.864 0 0 0-.161.072zm-6.506.25c-.19.117-.37.222-.4.235-.075.032.15.203.539.411l.329.176.286-.153c.351-.188.579-.344.579-.396 0-.062-.777-.487-.887-.485-.055.002-.256.098-.446.213zm4.493.222c-.213.123-.387.239-.387.259 0 .04.697.454.842.5.114.036.891-.398.891-.498 0-.09-.689-.485-.845-.485-.063 0-.289.101-.501.224zm-1.718.041c-.131.087-.305.186-.386.219s-.149.091-.149.126c0 .081.744.51.884.51.112 0 .875-.428.875-.491.001-.054-.809-.52-.906-.52-.044-.001-.187.07-.318.157zm5.825.061c-.096.061-.174.13-.174.152 0 .071.754.482.884.482.153 0 .514-.206.473-.271-.059-.097-.766-.475-.886-.475a.716.716 0 0 0-.297.112zm-1.107.082c-.386.202-.67.409-.625.455.094.094.771.47.846.47.123 0 .872-.43.872-.501 0-.072-.745-.514-.86-.51a.755.755 0 0 0-.237.088l.004-.002zm-6.414.227a3.664 3.664 0 0 0-.401.263l.009-.007c-.082.082.808.564.946.514.219-.078.817-.46.79-.504-.064-.103-.758-.475-.88-.47-.072.002-.281.094-.465.203zm4.53.205c-.512.29-.517.267.127.626l.347.195.452-.254c.248-.139.451-.271.451-.293 0-.04-.833-.528-.899-.526a5.193 5.193 0 0 0-.478.252zm-1.873.134c-.218.124-.403.251-.411.28-.018.062.76.507.885.507.079 0 .909-.459.909-.503 0-.041-.839-.51-.912-.51-.042 0-.254.102-.472.227zm5.984-.005c-.096.059-.174.127-.174.151s.197.158.439.297l.44.254.234-.131c.129-.072.234-.152.234-.18.001-.083-.725-.502-.866-.5a.743.743 0 0 0-.309.111l.003-.002zm-1.387.19c-.242.136-.44.266-.44.288s.322.223.716.447c.802.456.675.447 1.298.089.183-.106.333-.206.333-.222 0-.03-1.401-.856-1.445-.852-.198.099-.35.182-.498.27l.036-.02zm-8.44.155a6.182 6.182 0 0 0-.463.296l.02-.013c-.056.053.967.656 1.11.654.104-.001.69-.307.907-.473.123-.094.171-.052-.507-.447-.249-.146-.501-.263-.56-.261s-.286.112-.507.244zm2.241-.032c-.19.114-.353.229-.362.256s.18.165.42.306l.437.256.339-.183c.183-.097.333-.187.478-.285l-.018.012c.119-.09.119-.091.013-.174-.198-.156-.716-.402-.839-.397-.066.002-.277.097-.467.21zm4.589.172c-.217.124-.404.251-.414.282-.021.066.728.504.862.504.093 0 .607-.259.793-.398.054-.041.083-.098.065-.128-.038-.062-.793-.487-.864-.486-.025 0-.225.102-.443.226zm-1.817.096a4.39 4.39 0 0 0-.432.265l.015-.01-.125.095.43.25c.236.137.464.25.506.25.104 0 .859-.45.859-.511s-.773-.503-.879-.501c-.044.001-.213.073-.374.162zm-1.653.346c-.22.131-.406.258-.414.28s.19.155.44.295l.453.252.405-.222c.383-.21.539-.365.411-.408a5.195 5.195 0 0 1-.428-.242l.021.012c-.192-.116-.38-.21-.419-.208s-.249.11-.469.24zm-2.026.214c-.22.128-.408.256-.417.285-.02.058.773.538.888.538.108 0 .965-.497.966-.56.002-.084-.767-.507-.91-.501-.07.002-.308.11-.527.238zm6.543.003c-.29.173-.398.264-.362.306.028.034.233.157.455.274l.404.213.404-.213c.222-.117.427-.241.455-.274.036-.043-.072-.133-.362-.306-.227-.136-.451-.246-.497-.246s-.27.11-.497.246zm-1.89.143c-.212.123-.379.246-.37.272.016.05 1.349.845 1.576.941.106.045.192.015.531-.181.222-.128.412-.258.422-.288.019-.056-.018-.081-.733-.493a18.508 18.508 0 0 1-.691-.409l.092.053c-.27-.17-.378-.156-.827.104zm5.465.279c-.392.229-.412.25-.412.433 0 .186.003.189.12.113.066-.043.258-.156.427-.251.279-.157.306-.189.306-.354 0-.1-.007-.181-.014-.181s-.2.109-.427.242zm-7.079.03c-.19.114-.354.23-.363.257s.171.155.4.286c.229.13.566.325.75.431.814.475.988.568 1.064.568.117 0 .869-.437.867-.504-.002-.031-.317-.236-.702-.456a46.942 46.942 0 0 1-1.447-.827l.412.228c-.19-.114-.399-.198-.485-.195-.082.002-.306.098-.496.213zm-2.199.331c-.11.065-.2.133-.2.153s.208.149.463.288l.463.253.238-.128c.131-.071.241-.151.243-.178.007-.074-.761-.511-.893-.509a.893.893 0 0 0-.315.12zm8.187.265c-.354.206-.386.24-.387.399-.001.095.009.173.021.173.034 0 .69-.376.766-.438.071-.059.093-.363.027-.361a3.553 3.553 0 0 0-.426.227zm-6.811.191c-.233.139-.431.278-.442.309s.18.171.422.312l.441.256.321-.174c.496-.27.667-.38.667-.425 0-.055-.83-.537-.919-.534-.037.002-.258.117-.491.256zm.799.817-.211.111.144.114c.078.062.296.194.483.293l.341.18.247-.145c.136-.08.247-.161.246-.18-.004-.07-.787-.488-.911-.486a1.02 1.02 0 0 0-.338.114z"/>
    </symbol>
    <symbol id="icon-ui-design" viewBox="0 0 33 32">
      <path d="M3.713 5.138c-.352.069-.651.3-.83.644l-.153.293.014 10.139.014 10.139.165.267c.102.166.267.331.433.433l.267.165h25.626l.267-.165a1.42 1.42 0 0 0 .429-.427l.003-.006.165-.267.014-10.139.014-10.139-.153-.293c-.196-.376-.482-.579-.912-.65-.416-.068-25.015-.062-25.364.006zm25.495.729c.317.164.3-.416.303 10.352.002 10.726.02 10.096-.289 10.274-.13.075-1.522.086-12.789.104-12.173.02-12.649.018-12.795-.078-.344-.225-.323.475-.295-10.384.028-10.663.011-10.104.312-10.267.216-.117 25.327-.118 25.553-.001zM15.674 19.351c-.167.094-.213.209-.217.539l-.004.259h2.949v-.294c0-.209-.03-.332-.104-.424-.104-.127-.117-.129-1.297-.142-.939-.011-1.221.002-1.326.062zm5.156 2.228c-.014.039-.032.512-.04 1.051l-.014.981-.209.049c-.271.064-.366.244-.235.444l.091.139h3.38l.091-.139c.138-.211.034-.395-.251-.44l-.22-.036v-2.115h-.764v.329c0 .446-.11.691-.354.792-.167.07-.217.071-.377.004-.251-.104-.276-.158-.307-.661l-.027-.437-.37-.017c-.264-.011-.376.004-.395.055zm-5.377 2.147c0 .25.024.328.134.438l.133.134h2.468l.136-.137c.117-.117.135-.178.12-.423l-.016-.286-2.976-.029v.303z"/>
    </symbol>
  </defs>
</svg>